<svg width="20" height="21" viewBox="0 0 20 21" fill="none" xmlns="http://www.w3.org/2000/svg">
<g clip-path="url(#clip0)">
<path d="M10 0.655273C4.486 0.655273 0 5.14127 0 10.6553C0 13.0703 0.860667 15.2879 2.29133 17.0179C2.295 17.0229 2.29533 17.0293 2.29933 17.0339C3.33233 18.2796 4.62967 19.2346 6.07533 19.8516C6.092 19.8586 6.10833 19.8663 6.125 19.8733C6.242 19.9226 6.36033 19.9683 6.479 20.0129C6.52567 20.0306 6.57233 20.0486 6.61967 20.0656C6.722 20.1023 6.825 20.1369 6.92867 20.1703C6.995 20.1916 7.06133 20.2126 7.12833 20.2326C7.22 20.2599 7.312 20.2863 7.40467 20.3113C7.486 20.3333 7.568 20.3536 7.65 20.3733C7.733 20.3933 7.81633 20.4133 7.9 20.4309C7.99333 20.4509 8.08767 20.4686 8.18233 20.4859C8.25833 20.4999 8.334 20.5146 8.41067 20.5269C8.51567 20.5439 8.62133 20.5573 8.72733 20.5709C8.79567 20.5796 8.86367 20.5896 8.93233 20.5969C9.05233 20.6096 9.17333 20.6186 9.29467 20.6269C9.351 20.6309 9.407 20.6369 9.46367 20.6399C9.64067 20.6499 9.81967 20.6553 10 20.6553C10.1803 20.6553 10.3593 20.6499 10.537 20.6406C10.5937 20.6376 10.6497 20.6316 10.706 20.6276C10.8273 20.6189 10.9483 20.6103 11.0683 20.5976C11.137 20.5903 11.205 20.5803 11.2733 20.5716C11.3793 20.5579 11.485 20.5446 11.59 20.5276C11.6663 20.5153 11.7423 20.5006 11.8183 20.4866C11.9127 20.4693 12.007 20.4516 12.1007 20.4316C12.1843 20.4136 12.2673 20.3939 12.3507 20.3739C12.4327 20.3539 12.5147 20.3336 12.596 20.3119C12.6887 20.2873 12.7807 20.2606 12.8723 20.2333C12.9393 20.2133 13.0057 20.1923 13.072 20.1709C13.1757 20.1376 13.2787 20.1029 13.381 20.0663C13.428 20.0493 13.4747 20.0313 13.5217 20.0136C13.6407 19.9689 13.7587 19.9229 13.8757 19.8739C13.8923 19.8669 13.9087 19.8593 13.9253 19.8523C15.3707 19.2353 16.6683 18.2803 17.7013 17.0346C17.7053 17.0299 17.7057 17.0233 17.7093 17.0186C19.1393 15.2879 20 13.0703 20 10.6553C20 5.14127 15.514 0.655273 10 0.655273ZM14.0523 19.0619C14.0473 19.0643 14.0427 19.0669 14.0377 19.0693C13.9187 19.1266 13.7977 19.1806 13.6757 19.2333C13.648 19.2449 13.6207 19.2569 13.593 19.2686C13.4863 19.3133 13.3783 19.3556 13.2697 19.3963C13.2243 19.4133 13.179 19.4299 13.1333 19.4459C13.037 19.4803 12.9403 19.5133 12.8427 19.5446C12.782 19.5639 12.721 19.5823 12.66 19.6003C12.5733 19.6263 12.4863 19.6513 12.3983 19.6746C12.3243 19.6943 12.2497 19.7123 12.175 19.7299C12.0967 19.7486 12.0187 19.7676 11.9397 19.7843C11.8533 19.8026 11.7663 19.8183 11.6797 19.8339C11.6093 19.8469 11.5393 19.8606 11.4683 19.8719C11.3707 19.8873 11.272 19.8996 11.1737 19.9119C11.1113 19.9199 11.0493 19.9293 10.9863 19.9359C10.874 19.9479 10.7607 19.9556 10.6477 19.9636C10.5973 19.9669 10.5473 19.9726 10.4963 19.9753C10.3313 19.9839 10.166 19.9886 10 19.9886C9.834 19.9886 9.66867 19.9839 9.504 19.9753C9.45333 19.9726 9.40333 19.9673 9.35267 19.9636C9.23933 19.9559 9.12633 19.9479 9.014 19.9359C8.951 19.9293 8.889 19.9199 8.82667 19.9119C8.72833 19.8996 8.62967 19.8873 8.532 19.8719C8.461 19.8606 8.391 19.8469 8.32067 19.8339C8.23367 19.8183 8.14667 19.8023 8.06067 19.7843C7.98167 19.7676 7.90333 19.7486 7.82533 19.7299C7.75067 19.7119 7.676 19.6943 7.602 19.6746C7.51433 19.6513 7.427 19.6259 7.34033 19.6003C7.27933 19.5823 7.21833 19.5639 7.15767 19.5446C7.06 19.5133 6.963 19.4803 6.867 19.4459C6.82133 19.4296 6.776 19.4129 6.73067 19.3963C6.622 19.3556 6.514 19.3133 6.40733 19.2686C6.37967 19.2573 6.35267 19.2453 6.325 19.2336C6.203 19.1813 6.082 19.1269 5.96267 19.0696C5.95767 19.0673 5.953 19.0649 5.948 19.0623C4.785 18.4996 3.75767 17.7009 2.924 16.7309C3.56833 14.3583 5.39233 12.4456 7.739 11.6846C7.78533 11.7129 7.83367 11.7383 7.88133 11.7649C7.90933 11.7806 7.937 11.7973 7.96533 11.8123C8.06467 11.8649 8.16533 11.9143 8.26833 11.9586C8.34733 11.9933 8.429 12.0226 8.51033 12.0526C8.52633 12.0583 8.54233 12.0646 8.55833 12.0703C9.01033 12.2303 9.494 12.3219 10 12.3219C10.506 12.3219 10.9897 12.2303 11.4413 12.0703C11.4573 12.0646 11.4733 12.0583 11.4893 12.0526C11.5707 12.0226 11.6523 11.9933 11.7313 11.9586C11.8343 11.9143 11.935 11.8649 12.0343 11.8123C12.0627 11.7969 12.0903 11.7806 12.1183 11.7649C12.166 11.7383 12.2147 11.7129 12.2613 11.6843C14.608 12.4456 16.4317 14.3583 17.0763 16.7306C16.2427 17.7003 15.2153 18.4989 14.0523 19.0619ZM6.33333 7.98861C6.33333 5.96694 7.97833 4.32194 10 4.32194C12.0217 4.32194 13.6667 5.96694 13.6667 7.98861C13.6667 9.27461 12.9997 10.4063 11.9947 11.0609C11.8633 11.1463 11.7267 11.2226 11.5863 11.2893C11.5697 11.2973 11.5533 11.3056 11.5367 11.3133C10.5713 11.7523 9.42867 11.7523 8.46333 11.3133C8.44667 11.3056 8.43 11.2973 8.41367 11.2893C8.273 11.2226 8.13667 11.1463 8.00533 11.0609C7.00033 10.4063 6.33333 9.27461 6.33333 7.98861ZM17.5763 16.0963C16.8207 13.8649 15.0967 12.0616 12.894 11.2049C13.775 10.4113 14.3333 9.26527 14.3333 7.98861C14.3333 5.59927 12.3893 3.65527 10 3.65527C7.61067 3.65527 5.66667 5.59927 5.66667 7.98861C5.66667 9.26527 6.225 10.4113 7.10633 11.2049C4.90367 12.0619 3.17967 13.8649 2.424 16.0963C1.31967 14.5633 0.666667 12.6846 0.666667 10.6553C0.666667 5.50894 4.85367 1.32194 10 1.32194C15.1463 1.32194 19.3333 5.50894 19.3333 10.6553C19.3333 12.6846 18.6803 14.5633 17.5763 16.0963Z" fill="black"/>
</g>
<defs>
<clipPath id="clip0">
<rect width="20" height="20" fill="white" transform="translate(0 0.655273)"/>
</clipPath>
</defs>
</svg>
