<svg width="25" height="26" viewBox="0 0 25 26" fill="none" xmlns="http://www.w3.org/2000/svg">
<g clip-path="url(#clip0)">
<path d="M22.9167 0H2.08335C0.91665 0 0 0.923491 0 2.0989V23.0877C0 24.2631 0.91665 25.1866 2.08335 25.1866H11.6667H16.6667H22.9167C24.0834 25.1866 25 24.2631 25 23.0877V2.0989C25 0.923491 24.0833 0 22.9167 0ZM12.5 24.347V15.9515H9.16665V12.5933H12.5V9.65487C12.5 7.26214 14.3334 5.24722 16.6667 5.03731H20.4167V8.39554H17.0833C16.375 8.39554 15.8333 8.94123 15.8333 9.65487V12.5933H20V15.9515H15.8333V24.347H12.5V24.347ZM24.1667 23.0877C24.1667 23.8013 23.625 24.347 22.9167 24.347H16.6667V16.791H20.8333V11.7537H16.6667V9.65482C16.6667 9.40295 16.8333 9.23506 17.0833 9.23506H21.25V4.19774H16.625C13.8334 4.44961 11.6667 6.84233 11.6667 9.65482V11.7537H8.3333V16.791H11.6667V24.347H2.08335C1.375 24.347 0.83335 23.8013 0.83335 23.0877V2.0989C0.83335 1.38526 1.375 0.839569 2.08335 0.839569H22.9167C23.625 0.839569 24.1667 1.38526 24.1667 2.0989V23.0877H24.1667Z" fill="black"/>
</g>
<defs>
<clipPath id="clip0">
<rect width="25" height="25.1866" fill="white"/>
</clipPath>
</defs>
</svg>
