<svg width="122" height="122" viewBox="0 0 122 122" fill="none" xmlns="http://www.w3.org/2000/svg">
<path d="M21.3822 102.297C20.945 102.297 20.5258 102.123 20.2166 101.814C10.7496 92.3429 4.87073 79.8746 3.58713 66.5452C2.30352 53.2157 5.69513 39.8548 13.1809 28.7514C20.6666 17.648 31.7805 9.49324 44.6185 5.68435C57.4565 1.87545 71.2195 2.64946 83.5495 7.87375C83.9522 8.04428 84.2707 8.3678 84.4348 8.77314C84.599 9.17847 84.5955 9.63243 84.4249 10.0351C84.2544 10.4378 83.9309 10.7563 83.5255 10.9205C83.1202 11.0847 82.6662 11.0811 82.2635 10.9106C70.6369 5.97206 57.6541 5.23323 45.5422 8.82081C33.4303 12.4084 22.9443 20.0988 15.8828 30.5728C8.8214 41.0468 5.62471 53.6516 6.84111 66.2249C8.05752 78.7982 13.6112 90.5564 22.5495 99.4826C22.78 99.7131 22.9369 100.007 23.0005 100.327C23.0641 100.646 23.0315 100.978 22.9067 101.279C22.782 101.58 22.5707 101.838 22.2996 102.019C22.0286 102.2 21.7099 102.297 21.3839 102.297H21.3822Z" fill="#E3DFD4"/>
<path d="M60.8349 118.645C51.3995 118.662 42.1063 116.346 33.7822 111.904C33.5884 111.803 33.4165 111.665 33.2764 111.498C33.1364 111.33 33.031 111.137 32.9664 110.928C32.9018 110.72 32.8793 110.5 32.9001 110.283C32.921 110.066 32.9848 109.855 33.0878 109.662C33.1909 109.47 33.3311 109.3 33.5005 109.162C33.6698 109.024 33.8648 108.921 34.0742 108.859C34.2836 108.797 34.5032 108.778 34.7202 108.801C34.9373 108.825 35.1474 108.892 35.3385 108.997C46.8449 115.148 60.1784 116.961 72.909 114.103C85.6397 111.246 96.92 103.91 104.694 93.4315C112.468 82.9531 116.218 70.0302 115.262 57.018C114.305 44.0058 108.704 31.7706 99.4809 22.5422C99.1806 22.2312 99.0144 21.8148 99.0182 21.3825C99.0219 20.9502 99.1953 20.5367 99.501 20.231C99.8066 19.9254 100.22 19.752 100.652 19.7482C101.085 19.7445 101.501 19.9106 101.812 20.211C109.902 28.2821 115.411 38.5762 117.637 49.7851C119.863 60.994 118.707 72.6118 114.315 83.162C109.923 93.7122 102.494 102.719 92.971 109.037C83.4485 115.355 72.2627 118.699 60.8349 118.645Z" fill="#E3DFD4"/>
<path d="M100.666 36.2272C100.229 36.2272 99.8096 36.0535 99.5005 35.7443C99.1913 35.4352 99.0176 35.0158 99.0176 34.5786V21.3894C99.0176 20.9521 99.1913 20.5328 99.5005 20.2236C99.8096 19.9144 100.229 19.7407 100.666 19.7407H113.855C114.293 19.7407 114.712 19.9144 115.021 20.2236C115.33 20.5328 115.504 20.9521 115.504 21.3894C115.504 21.8266 115.33 22.246 115.021 22.5551C114.712 22.8643 114.293 23.038 113.855 23.038H102.315V34.5786C102.315 35.0158 102.141 35.4352 101.832 35.7443C101.523 36.0535 101.103 36.2272 100.666 36.2272Z" fill="#E3DFD4"/>
<path d="M21.3906 102.309H8.20138C7.76413 102.309 7.34479 102.135 7.03561 101.826C6.72643 101.517 6.55273 101.097 6.55273 100.66C6.55273 100.223 6.72643 99.8035 7.03561 99.4943C7.34479 99.1851 7.76413 99.0114 8.20138 99.0114H19.7419V87.4709C19.7419 87.0337 19.9156 86.6143 20.2248 86.3051C20.534 85.996 20.9533 85.8223 21.3906 85.8223C21.8278 85.8223 22.2472 85.996 22.5563 86.3051C22.8655 86.6143 23.0392 87.0337 23.0392 87.4709V100.66C23.0392 101.097 22.8655 101.517 22.5563 101.826C22.2472 102.135 21.8278 102.309 21.3906 102.309Z" fill="#E3DFD4"/>
<path d="M61.0011 99C53.1616 99 45.4982 96.6753 38.9799 92.3198C32.4616 87.9644 27.3813 81.7739 24.3813 74.5311C21.3813 67.2883 20.5965 59.3186 22.126 51.6298C23.6555 43.941 27.4307 36.8783 32.9742 31.3351C38.5177 25.7919 45.5804 22.017 53.2693 20.4877C60.9582 18.9585 68.9279 19.7437 76.1706 22.744C83.4132 25.7443 89.6035 30.8249 93.9587 37.3433C98.3138 43.8618 100.638 51.5253 100.638 59.3648C100.626 69.8732 96.4457 79.9477 89.015 87.3782C81.5842 94.8086 71.5095 98.9882 61.0011 99ZM61.0011 23.0253C53.8138 23.0253 46.7879 25.1566 40.8119 29.1496C34.8359 33.1426 30.1782 38.8181 27.4278 45.4583C24.6773 52.0984 23.9577 59.4051 25.3598 66.4543C26.762 73.5035 30.223 79.9785 35.3052 85.0607C40.3873 90.1429 46.8624 93.6039 53.9116 95.0061C60.9608 96.4082 68.2674 95.6886 74.9076 92.9381C81.5478 90.1877 87.2232 85.53 91.2163 79.5539C95.2093 73.5779 97.3406 66.5521 97.3406 59.3648C97.3301 49.7302 93.4981 40.4932 86.6854 33.6804C79.8727 26.8677 70.6357 23.0358 61.0011 23.0253Z" fill="#E3DFD4"/>
<path d="M61.0009 98.9999C50.8222 98.9999 42.8477 81.5901 42.8477 59.3631C42.8477 37.136 50.8222 19.7279 61.0009 19.7279C71.1797 19.7279 79.1542 37.1376 79.1542 59.3647C79.1542 81.5918 71.1797 98.9999 61.0009 98.9999ZM61.0009 23.0252C52.9489 23.0252 46.145 39.6667 46.145 59.3647C46.145 79.0628 52.9489 95.7026 61.0009 95.7026C69.0529 95.7026 75.8569 79.0611 75.8569 59.3631C75.8569 39.665 69.0529 23.0252 61.0009 23.0252Z" fill="#E3DFD4"/>
<path d="M61.0002 98.9999C60.563 98.9999 60.1436 98.8262 59.8344 98.517C59.5253 98.2078 59.3516 97.7885 59.3516 97.3512V21.3766C59.3516 20.9393 59.5253 20.52 59.8344 20.2108C60.1436 19.9016 60.563 19.7279 61.0002 19.7279C61.4375 19.7279 61.8568 19.9016 62.166 20.2108C62.4752 20.52 62.6489 20.9393 62.6489 21.3766V97.3512C62.6489 97.7885 62.4752 98.2078 62.166 98.517C61.8568 98.8262 61.4375 98.9999 61.0002 98.9999Z" fill="#E3DFD4"/>
<path d="M98.9892 61.0131H23.0129C22.5757 61.0131 22.1563 60.8395 21.8471 60.5303C21.538 60.2211 21.3643 59.8017 21.3643 59.3645C21.3643 58.9272 21.538 58.5079 21.8471 58.1987C22.1563 57.8895 22.5757 57.7158 23.0129 57.7158H98.9892C99.4265 57.7158 99.8458 57.8895 100.155 58.1987C100.464 58.5079 100.638 58.9272 100.638 59.3645C100.638 59.8017 100.464 60.2211 100.155 60.5303C99.8458 60.8395 99.4265 61.0131 98.9892 61.0131Z" fill="#E3DFD4"/>
<path d="M94.3867 42.8812H27.6164C27.1792 42.8812 26.7598 42.7075 26.4507 42.3983C26.1415 42.0891 25.9678 41.6698 25.9678 41.2325C25.9678 40.7953 26.1415 40.3759 26.4507 40.0667C26.7598 39.7576 27.1792 39.5839 27.6164 39.5839H94.3867C94.8239 39.5839 95.2433 39.7576 95.5525 40.0667C95.8616 40.3759 96.0353 40.7953 96.0353 41.2325C96.0353 41.6698 95.8616 42.0891 95.5525 42.3983C95.2433 42.7075 94.8239 42.8812 94.3867 42.8812Z" fill="#E3DFD4"/>
<path d="M94.3867 79.1518H27.6164C27.1792 79.1518 26.7598 78.9781 26.4507 78.6689C26.1415 78.3597 25.9678 77.9404 25.9678 77.5031C25.9678 77.0659 26.1415 76.6466 26.4507 76.3374C26.7598 76.0282 27.1792 75.8545 27.6164 75.8545H94.3867C94.8239 75.8545 95.2433 76.0282 95.5525 76.3374C95.8616 76.6466 96.0353 77.0659 96.0353 77.5031C96.0353 77.9404 95.8616 78.3597 95.5525 78.6689C95.2433 78.9781 94.8239 79.1518 94.3867 79.1518Z" fill="#E3DFD4"/>
</svg>
