<svg width="25" height="26" viewBox="0 0 25 26" fill="none" xmlns="http://www.w3.org/2000/svg">
<g clip-path="url(#clip0)">
<path d="M21.1957 0H3.80435C1.70652 0 0 1.71926 0 3.83274V21.3538C0 23.4673 1.70707 25.1866 3.80435 25.1866V25.1367C4.24837 25.1866 5.05543 25.1866 6.52174 25.1866H21.1957C23.2935 25.1866 25 23.4668 25 21.3538V3.83274C25 1.71926 23.2929 0 21.1957 0ZM23.913 21.3538C23.913 22.8634 22.694 24.0915 21.1957 24.0915C21.1957 24.0915 3.92446 24.0915 3.80435 24.0915C2.30598 24.0915 1.08696 22.8634 1.08696 21.3538V3.83274C1.08696 2.32319 2.30598 1.09507 3.80435 1.09507H21.1957C22.694 1.09507 23.913 2.32319 23.913 3.83274V21.3538Z" fill="black"/>
<path d="M12.4998 4.38025C8.00472 4.38025 4.34766 8.06461 4.34766 12.5933C4.34766 17.1219 8.00472 20.8063 12.4998 20.8063C16.9949 20.8063 20.652 17.1219 20.652 12.5933C20.652 8.06461 16.9949 4.38025 12.4998 4.38025ZM12.4998 19.7112C8.60418 19.7112 5.43461 16.518 5.43461 12.5933C5.43461 8.66854 8.60418 5.47532 12.4998 5.47532C16.3955 5.47532 19.565 8.66854 19.565 12.5933C19.565 16.518 16.3955 19.7112 12.4998 19.7112Z" fill="black"/>
<path d="M12.4745 7.63965C9.76359 7.63965 7.55762 9.86209 7.55762 12.5932C7.55762 15.3243 9.76359 17.5467 12.4745 17.5467C15.1853 17.5467 17.3913 15.3243 17.3913 12.5932C17.3913 9.86209 15.1853 7.63965 12.4745 7.63965ZM12.4745 16.4517C10.3625 16.4517 8.64457 14.7209 8.64457 12.5932C8.64457 10.4655 10.3625 8.73472 12.4745 8.73472C14.5864 8.73472 16.3043 10.4655 16.3043 12.5932C16.3043 14.7209 14.5864 16.4517 12.4745 16.4517Z" fill="black"/>
<path d="M20.6519 5.47529C21.2522 5.47529 21.7389 4.98501 21.7389 4.38022C21.7389 3.77543 21.2522 3.28516 20.6519 3.28516C20.0516 3.28516 19.5649 3.77543 19.5649 4.38022C19.5649 4.98501 20.0516 5.47529 20.6519 5.47529Z" fill="black"/>
</g>
<defs>
<clipPath id="clip0">
<rect width="25" height="25.1866" fill="white"/>
</clipPath>
</defs>
</svg>
