<svg width="60" height="43" viewBox="0 0 60 43" fill="none" xmlns="http://www.w3.org/2000/svg">
<path fill-rule="evenodd" clip-rule="evenodd" d="M24.7679 20.649C25.4387 20.2111 26.0547 19.6927 26.6024 19.1048C28.6983 16.8428 29.6357 13.7505 29.3889 9.91303C29.1223 5.76273 26.7918 2.64663 22.8266 1.14004C20.1439 0.120627 17.5463 0.14868 17.1989 0.157447L1.96778 0.262394C0.90625 0.269407 0.0514349 1.14681 0.0586058 2.22208C0.0586058 2.22233 0.0586058 2.22258 0.0586058 2.22283C0.0655294 3.29785 0.931472 4.16373 1.99276 4.15671C1.99301 4.15671 1.9935 4.15671 1.99375 4.15671L17.2442 4.05177L17.2724 4.05152L17.3006 4.05051C18.0982 4.02622 25.1561 3.99115 25.5525 10.166C25.727 12.8846 25.1371 14.9956 23.7988 16.4401C22.4317 17.9156 20.2265 18.7258 17.5894 18.7211L1.95443 18.6958C0.892897 18.694 0.0309115 19.5642 0.0291806 20.6394V20.6397C0.0272024 21.7147 0.885974 22.5879 1.94726 22.5899C1.94751 22.5899 1.948 22.5899 1.94825 22.5899L17.5829 22.6152C17.7266 22.6159 17.868 22.6107 18.0102 22.6071C20.0364 22.7023 25.186 23.4638 25.5233 28.7129C25.6979 31.4315 25.1079 33.5424 23.7694 34.9864C22.4022 36.4622 20.1971 37.2725 17.5599 37.268L1.92525 37.2427C0.863472 37.2409 0.00148624 38.1113 2.61043e-06 39.1868C-0.00172829 40.2623 0.857538 41.1355 1.91932 41.137L17.554 41.1623C21.2668 41.168 24.4697 39.9214 26.573 37.6517C28.6688 35.3897 29.6062 32.2974 29.3599 28.4599C29.1414 25.053 27.5306 22.3444 24.7679 20.649ZM59.9617 10.1938C59.6949 6.04326 57.3639 2.9274 53.3991 1.42082C50.7185 0.402157 48.1219 0.429458 47.7717 0.438224L32.5401 0.543172C31.4788 0.550185 30.624 1.42733 30.6309 2.50235C30.6309 2.50286 30.6309 2.50336 30.6309 2.50386C30.6381 3.57913 31.5043 4.44476 32.5656 4.43774L47.8167 4.33254H47.8449L47.8726 4.33154C48.6706 4.30725 55.7287 4.27218 56.125 10.4473C56.2999 13.1659 55.7096 15.2769 54.3711 16.7208C53.0042 18.1964 50.7988 19.0061 48.1619 19.0019L32.527 18.9766C31.4746 18.9753 30.6168 19.8314 30.6027 20.8974C30.5145 21.1231 30.469 21.3636 30.4687 21.6063L30.4393 40.1694C30.4183 41.2447 31.2617 42.1336 32.323 42.1549C33.3845 42.1762 34.2621 41.3218 34.2831 40.2468C34.2836 40.2233 34.2836 40.1995 34.2831 40.1759L34.3108 22.8741L48.1555 22.8969C51.868 22.9027 55.0712 21.6561 57.1747 19.3863C59.2698 17.1236 60.2075 14.031 59.9617 10.1938Z" fill="black"/>
</svg>
