<svg width="122" height="122" viewBox="0 0 122 122" fill="none" xmlns="http://www.w3.org/2000/svg">
<path d="M83.1273 23.3977C82.518 22.0898 80.622 22.0335 79.9355 23.3017C79.9059 23.3562 76.9143 28.8191 71.1162 33.9109C69.3801 35.4357 71.7389 38.1213 73.4747 36.5966C77.0199 33.4829 79.5828 30.2645 81.1655 28.0096C82.5664 31.6651 84.7695 38.2145 85.9418 45.8371C86.9865 52.6291 87.0198 58.9326 86.0412 64.5722C84.8348 71.5253 82.0714 77.4895 77.8284 82.2994C73.7917 86.8754 68.2526 89.8324 62.2312 90.6264C56.1038 91.4349 49.7538 89.9435 44.3518 86.4283C42.9866 85.54 41.7604 84.539 40.6813 83.4443C42.1641 81.53 43.8914 79.7653 45.8396 78.1385C51.0022 73.8283 56.9623 70.5917 62.2915 66.5006C65.5228 64.0199 68.5256 61.283 71.0312 58.0579C71.6276 57.2901 71.7658 56.2812 71.0312 55.5306C70.4209 54.9068 69.0949 54.7696 68.5037 55.5306C60.3302 66.0524 46.7756 70.4618 38.3302 80.5673C36.7322 78.1771 35.72 75.4877 35.3764 72.6202C34.7011 66.9822 36.7368 61.1762 40.962 56.6908C45.2641 52.1235 50.1673 49.7971 55.8445 47.1036C58.8629 45.6715 61.9836 44.1908 65.447 42.2098C67.4529 41.0624 65.6779 37.9595 63.6726 39.1071C60.328 41.02 57.2699 42.4709 54.3126 43.8742C48.3089 46.7228 43.1239 49.1826 38.3602 54.2399C33.407 59.4985 31.0259 66.3527 31.8275 73.045C32.2904 76.9104 33.7575 80.4954 36.0889 83.5904C33.9365 86.9104 32.5073 90.6619 31.7319 94.538C31.2827 96.7843 34.7269 97.7453 35.1784 95.4883C35.8401 92.1804 37.0117 89.1769 38.6332 86.4472C39.7658 87.5299 41.0239 88.5274 42.4024 89.4242C47.5395 92.7671 53.2763 94.395 58.9188 94.3948C66.9863 94.3948 74.8603 91.0665 80.5086 84.6641C85.2056 79.3397 88.2546 72.7686 89.5711 65.1336C90.6117 59.0989 90.5743 52.3939 89.4603 45.2042C87.5762 33.0405 83.3081 23.7856 83.1273 23.3977Z" fill="#E3DFD4"/>
<path d="M104.134 17.8663C92.6121 6.34519 77.2937 0 61 0C44.7063 0 29.3879 6.34519 17.8663 17.8663C6.34519 29.3879 0 44.7063 0 61C0 77.2937 6.34519 92.6121 17.8663 104.134C29.3879 115.655 44.7063 122 61 122C69.931 122 78.5432 120.109 86.5971 116.381C88.694 115.41 87.1924 112.166 85.0955 113.137C77.5158 116.647 69.4087 118.426 61 118.426C45.6609 118.426 31.2401 112.453 20.3938 101.606C9.54745 90.7599 3.57422 76.3391 3.57422 61C3.57422 45.6609 9.54745 31.2401 20.3938 20.3938C31.2401 9.54745 45.6609 3.57422 61 3.57422C76.3391 3.57422 90.7599 9.54745 101.606 20.3938C112.453 31.2401 118.426 45.6609 118.426 61C118.426 80.1564 108.921 97.9839 93.0005 108.689C91.083 109.978 93.0774 112.944 94.9949 111.655C111.904 100.285 122 81.3483 122 61C122 44.7063 115.655 29.3879 104.134 17.8663Z" fill="#E3DFD4"/>
</svg>
