<svg width="122" height="122" viewBox="0 0 122 122" fill="none" xmlns="http://www.w3.org/2000/svg">
<g clip-path="url(#clip0)">
<path d="M97.6848 29.9347C97.1605 29.2793 96.2429 29.0172 95.3254 29.4104L91.9174 30.7212L81.4312 7.52051C81.038 6.73405 80.3826 6.34082 79.5961 6.34082H45.5161C44.8607 6.34082 44.3364 6.60297 43.9431 7.12728L24.6748 30.1969C24.2816 30.5901 24.1505 31.2455 24.2816 31.7698C24.4127 32.2941 24.6748 32.8184 25.068 33.2116L44.3364 47.499C45.2539 48.1544 46.5647 48.0233 47.2201 47.1058L59.8035 30.0658L65.833 40.8141L62.0318 42.7803C61.2453 43.1735 60.8521 43.96 60.9832 44.7464C61.1143 45.5329 61.6386 46.3193 62.5561 46.4504L84.0528 51.6935C84.1838 51.6935 84.3149 51.6935 84.5771 51.6935C85.2325 51.6935 85.8878 51.3003 86.2811 50.776L97.8159 32.2941C98.3402 31.5076 98.2091 30.5901 97.6848 29.9347ZM45.1228 42.9113L29.2625 31.1144L46.5647 10.4042H49.3173L57.8373 26.2645L45.1228 42.9113ZM83.3974 47.499L68.8478 43.9599L69.6343 43.5667C70.1586 43.3046 70.5518 42.9113 70.6829 42.387C70.814 41.8627 70.814 41.3384 70.5518 40.8141L61.9007 25.347L53.7739 10.2731H78.1543L88.9026 34.1292C89.2958 34.9156 90.2134 35.4399 90.9998 35.3089L83.3974 47.499Z" fill="#E3DFD4"/>
<path d="M52.3325 82.8898L31.098 81.9723L36.6033 70.9618L40.2734 73.059C41.0599 73.4523 41.9774 73.4523 42.6328 72.7969C43.2882 72.2726 43.5504 71.355 43.1571 70.5686L35.4236 49.8584C35.1614 49.0719 34.375 48.5476 33.4574 48.5476L11.5676 49.3341C10.65 49.3341 9.99463 49.9895 9.73248 50.7759C9.47032 51.5624 9.86355 52.4799 10.5189 53.0042L13.5337 55.1015L0.294923 76.8603C-0.0983078 77.5156 -0.0983078 78.4332 0.294923 79.0886L14.9756 100.716L20.6119 109.236C21.0051 109.761 21.6605 110.154 22.3159 110.154H52.2015C53.3811 110.154 54.2987 109.236 54.2987 108.057V84.987C54.2987 83.9384 53.3811 83.0209 52.3325 82.8898ZM18.1214 98.0947L4.48939 77.9089L18.2525 55.6258C18.7768 54.8393 18.6457 53.9218 17.9903 53.2664L32.2777 52.611L37.5208 66.7673L36.7344 66.3741C36.21 66.1119 35.6857 65.9809 35.1614 66.243C34.6371 66.3741 34.2439 66.7673 33.9817 67.2916L26.1171 83.0209L18.1214 98.0947ZM50.1042 106.09H23.3645L20.743 102.027L29.1319 86.0356L50.1042 86.9532V106.09Z" fill="#E3DFD4"/>
<path d="M121.803 76.0737L108.695 49.0718C108.433 48.5475 108.04 48.1543 107.516 48.0232C106.991 47.8921 106.467 47.8921 105.943 48.2854L84.9705 59.9512C84.053 60.4755 83.6597 61.7863 84.1841 62.7039L94.4081 81.1857L82.0868 82.2344L81.9557 78.0399C81.9557 77.1223 81.3004 76.467 80.5139 76.2048C79.7274 75.9427 78.8099 76.2048 78.2856 76.8602L64.6536 94.2935C64.1293 94.9488 64.1293 95.9975 64.5225 96.6529L76.7127 114.741C77.1059 115.266 77.7613 115.659 78.4167 115.659C78.5477 115.659 78.8099 115.659 78.941 115.528C79.7274 115.266 80.3828 114.479 80.3828 113.693L80.5139 110.023H105.943C106.729 110.023 107.516 109.498 107.778 108.843L121.803 77.7777C122.065 77.2534 122.065 76.598 121.803 76.0737ZM104.894 106.09H78.8099C77.8924 106.09 77.1059 106.746 76.8437 107.532L68.848 95.6042L78.1545 83.6762V84.5937C78.1545 85.1181 78.4167 85.6424 78.8099 86.0356C79.2031 86.4288 79.7274 86.5599 80.3828 86.5599L97.9471 84.987L114.987 83.8073L104.894 106.09ZM116.691 79.4817L98.7336 80.7925L88.6407 62.4417L105.943 52.742L117.871 76.9913L116.691 79.4817Z" fill="#E3DFD4"/>
</g>
<defs>
<clipPath id="clip0">
<rect width="122" height="122" fill="white"/>
</clipPath>
</defs>
</svg>
