<svg width="20" height="21" viewBox="0 0 20 21" fill="none" xmlns="http://www.w3.org/2000/svg">
<g clip-path="url(#clip0)">
<path d="M19.8779 19.944L13.7925 13.8586C15.0565 12.4552 15.8334 10.6048 15.8334 8.57191C15.8333 4.20672 12.2819 0.655273 7.91668 0.655273C3.55145 0.655273 0 4.20672 0 8.57195C0 12.9372 3.55145 16.4886 7.91668 16.4886C9.94961 16.4886 11.7999 15.7118 13.2034 14.4478L19.2887 20.5332C19.3701 20.6146 19.4768 20.6553 19.5834 20.6553C19.69 20.6553 19.7966 20.6146 19.878 20.5332C20.0407 20.3704 20.0407 20.1068 19.8779 19.944ZM7.91668 15.6553C4.01125 15.6553 0.833359 12.4778 0.833359 8.57195C0.833359 4.66613 4.01125 1.48859 7.91668 1.48859C11.8221 1.48859 15 4.66609 15 8.57195C15 12.4778 11.8221 15.6553 7.91668 15.6553Z" fill="black"/>
</g>
<defs>
<clipPath id="clip0">
<rect width="20" height="20" fill="white" transform="translate(0 0.655273)"/>
</clipPath>
</defs>
</svg>
