<svg width="25" height="26" viewBox="0 0 25 26" fill="none" xmlns="http://www.w3.org/2000/svg">
<g clip-path="url(#clip0)">
<path d="M18.8477 2.60716C18.8477 2.87887 18.6291 3.09908 18.3594 3.09908C18.0897 3.09908 17.8711 2.87887 17.8711 2.60716C17.8711 2.33545 18.0897 2.11523 18.3594 2.11523C18.6291 2.11523 18.8477 2.33545 18.8477 2.60716Z" fill="black"/>
<path d="M18.2717 14.8754C18.1008 14.6442 18.1378 14.4926 18.2686 14.2608C18.4319 13.972 18.7569 13.531 19.101 13.0643C20.2046 11.567 20.9168 10.5303 20.7693 9.79086C20.7234 9.56084 20.5229 9.39578 20.2906 9.39578C20.2892 9.39578 17.8877 9.39635 17.0014 9.40077C16.7862 9.40174 16.597 9.54009 16.5358 9.748C16.4292 10.1104 16.0128 11.0904 15.5081 11.9876C14.8537 13.1509 14.4249 13.5155 14.2738 13.5794L14.25 13.572C14.2006 13.5105 14.1148 13.3444 14.0795 12.9146C14.0427 12.4649 14.0753 11.9211 14.107 11.3952C14.144 10.7803 14.176 10.2492 14.0995 9.87041C14.0469 9.73186 14.0869 9.27664 13.6662 9.18114C13.0867 9.04951 12.3003 9.0055 11.7396 8.99955C10.4115 8.98629 10.0206 9.17941 9.82915 9.34985C9.6985 9.46611 9.63918 9.64385 9.67389 9.81603C9.70842 9.9882 9.83144 10.1289 9.99681 10.1848C10.2945 10.2857 10.4008 10.4136 10.4859 11.018C10.5398 11.4036 10.5681 12.0512 10.5095 12.629C10.4271 13.4442 10.2308 13.6073 10.2116 13.6206C10.1698 13.6067 9.84365 13.4642 9.25466 12.2601C8.74788 11.2244 8.32254 9.97994 8.12379 9.4638C8.05093 9.27453 7.87011 9.14982 7.66851 9.14982H4.74912C4.58814 9.14982 4.43746 9.22975 4.34629 9.3635C4.25531 9.49724 4.23547 9.66768 4.29364 9.8191C5.20822 12.2049 6.25764 14.6486 7.72954 16.3586C9.25256 18.1282 11.1324 18.9883 13.4766 18.9883C13.7463 18.9883 13.9649 18.7681 13.9649 18.4964C13.9649 17.6478 14.0833 17.3959 14.2681 17.0423C14.3705 16.8471 14.4707 16.7633 14.5252 16.751C14.5746 16.7395 14.6618 16.7762 14.7587 16.849C15.0364 17.0573 15.2569 17.3315 15.4902 17.6217C15.8264 18.0398 16.1741 18.4724 16.7263 18.756C17.0273 18.9099 17.5656 18.9879 17.8745 18.9833H20.3125C20.59 18.9833 20.8119 18.7554 20.8004 18.476C20.7407 17.022 18.718 15.4405 18.2717 14.8754V14.8754ZM17.8711 18.0045C17.8684 18.0045 17.866 18.0045 17.8633 18.0045C17.6596 18.0095 17.2896 17.9409 17.169 17.879C16.8024 17.6907 16.5459 17.3717 16.2489 17.0026C15.988 16.6778 15.7181 16.3421 15.3422 16.06C14.6496 15.5398 13.8655 15.7039 13.4045 16.5833C13.1462 17.0767 13.0461 17.4019 13.0045 17.9914C11.1595 17.8869 9.70823 17.1559 8.4673 15.7139C7.22676 14.2726 6.28549 12.2151 5.46457 10.1337H7.33072C8.06047 12.1139 9.00708 14.6054 10.21 14.6054C10.5057 14.6054 10.7708 14.4791 10.977 14.2401C11.7687 13.3221 11.4561 10.9048 11.4527 10.8802C11.4109 10.5825 11.351 10.2697 11.2059 9.99089C11.826 9.9663 12.6574 10.0068 13.1451 10.0799C13.1922 10.336 13.1617 10.8441 13.1321 11.3356C13.0602 12.5324 12.9858 13.7678 13.6231 14.3314C13.6421 14.3483 13.9959 14.5646 14.2143 14.5725C14.6114 14.5885 15.2607 14.3934 16.3109 12.5552C16.7391 11.8056 17.137 10.9425 17.3512 10.3785C18.0567 10.3771 19.0453 10.3748 19.6943 10.3754C19.4081 11.0122 18.775 11.8564 18.3169 12.4778C17.939 12.9905 17.6127 13.4332 17.42 13.7741C17.0616 14.4082 17.1219 14.973 17.495 15.4714C17.4969 15.4743 17.499 15.477 17.5011 15.4797C17.9644 16.0727 19.167 16.9922 19.668 18.0045H17.8711Z" fill="black"/>
<path d="M22.5586 0H2.44141C1.0952 0 0 1.10337 0 2.45963V22.7269C0 24.0832 1.0952 25.1866 2.44141 25.1866H22.5586C23.9048 25.1866 25 24.0832 25 22.7269V2.45963C25 1.10337 23.9048 0 22.5586 0ZM24.0234 22.7269C24.0234 23.5407 23.3664 24.2027 22.5586 24.2027H2.44141C1.63364 24.2027 0.976562 23.5407 0.976562 22.7269V2.45963C0.976562 1.64584 1.63364 0.98385 2.44141 0.98385H22.5586C23.3664 0.98385 24.0234 1.64584 24.0234 2.45963V22.7269Z" fill="black"/>
<path d="M6.64062 3.09908H16.4062C16.6759 3.09908 16.8945 2.87887 16.8945 2.60716C16.8945 2.33545 16.6759 2.11523 16.4062 2.11523H6.64062C6.37093 2.11523 6.15234 2.33545 6.15234 2.60716C6.15234 2.87887 6.37093 3.09908 6.64062 3.09908Z" fill="black"/>
</g>
<defs>
<clipPath id="clip0">
<rect width="25" height="25.1866" fill="white"/>
</clipPath>
</defs>
</svg>
